<?xml version="1.0" encoding="UTF-8"?>
<svg width="512" height="512" viewBox="0 0 512 512" fill="none" xmlns="http://www.w3.org/2000/svg">
  <defs>
    <linearGradient id="gradient" x1="0%" y1="0%" x2="100%" y2="100%">
      <stop offset="0%" style="stop-color:#fff"/>
      <stop offset="100%" style="stop-color:rgba(255, 255, 255, 0.8)"/>
    </linearGradient>
  </defs>
  <rect width="512" height="512" rx="128" fill="#000"/>
  <g transform="translate(96, 96)">
    <!-- Music note -->
    <path d="M160 32v192c0 35.3-28.7 64-64 64s-64-28.7-64-64 28.7-64 64-64c11.3 0 22 3 31.2 8.3V96l96-32v128c0 35.3-28.7 64-64 64s-64-28.7-64-64 28.7-64 64-64c11.3 0 22 3 31.2 8.3V32z" fill="url(#gradient)"/>
    <!-- Visualizer bars -->
    <g transform="translate(32, 256)">
      <rect x="0" y="0" width="16" height="64" rx="8" fill="url(#gradient)" opacity="0.8">
        <animate attributeName="height" values="64;32;64" dur="1s" repeatCount="indefinite"/>
      </rect>
      <rect x="32" y="0" width="16" height="96" rx="8" fill="url(#gradient)" opacity="0.8">
        <animate attributeName="height" values="96;48;96" dur="1.2s" repeatCount="indefinite"/>
      </rect>
      <rect x="64" y="0" width="16" height="48" rx="8" fill="url(#gradient)" opacity="0.8">
        <animate attributeName="height" values="48;24;48" dur="0.8s" repeatCount="indefinite"/>
      </rect>
      <rect x="96" y="0" width="16" height="80" rx="8" fill="url(#gradient)" opacity="0.8">
        <animate attributeName="height" values="80;40;80" dur="1.1s" repeatCount="indefinite"/>
      </rect>
    </g>
  </g>
</svg> 